<svg width="1920" height="239" viewBox="0 0 1920 239" fill="none" xmlns="http://www.w3.org/2000/svg">
<path d="M3.26353 175.08C84.0744 206.764 123.152 40.365 202.264 76.0803C236.249 91.4232 234.055 144.527 271.264 142.08C306.153 139.786 297.597 83.5122 331.764 76.0803C375.437 66.5804 383.333 126.605 425.264 142.08C518.932 176.65 585.643 26.425 672.264 76.0803C704.007 94.2772 703.06 134.079 738.764 142.08C786.024 152.672 795.816 82.9196 843.764 76.0803C906.414 67.1438 928.564 145.361 991.764 142.08C1048.45 139.138 1064.97 68.805 1121.26 76.0803C1166.54 81.9322 1172.38 147.058 1217.76 142.08C1268.81 136.482 1244.97 39.1413 1296.26 36.5803C1349.6 33.9172 1334.33 120.705 1383.26 142.08C1466.73 178.537 1502.49 16.1952 1591.26 36.5803C1653.96 50.9776 1655.12 127.449 1717.76 142.08C1816.02 165.031 1845.58 -34.4529 1937.76 6.58029C2039.8 51.9998 1937.76 292.58 1937.76 292.58H-78.2365C-78.2365 292.58 -158.917 78.4555 -81.2365 91.0803C-35.3089 98.5446 -40.056 158.096 3.26353 175.08Z" fill="black" stroke="#010101"/>
</svg>
